<?xml version="1.0" encoding="UTF-8"?>
<!DOCTYPE svg PUBLIC "-//W3C//DTD SVG 1.1//EN" "http://www.w3.org/Graphics/SVG/1.1/DTD/svg11.dtd">
<!-- Creator: CorelDRAW 2017 -->
<svg xmlns="http://www.w3.org/2000/svg" xml:space="preserve" width="120px" height="38px" version="1.1" style="shape-rendering:geometricPrecision; text-rendering:geometricPrecision; image-rendering:optimizeQuality; fill-rule:evenodd; clip-rule:evenodd"
viewBox="0 0 5.53 1.74"
 xmlns:xlink="http://www.w3.org/1999/xlink">
 <defs>
  <style type="text/css">
   <![CDATA[
    .fil2 {fill:black}
    .fil0 {fill:blue}
    .fil1 {fill:white}
   ]]>
  </style>
 </defs>
 <g id="Camada_x0020_1">
  <metadata id="CorelCorpID_0Corel-Layer"/>
  <path class="fil0" d="M4.37 0.35l0.41 -0.08 0.03 0.15 -0.41 0.08 -0.03 -0.15zm-0.99 -0.02l0.42 0 0 0.15 -0.42 0 0 -0.15zm0.51 -0.01l0.41 0 0 0.15 -0.41 0 0 -0.15z"/>
  <path class="fil1" d="M4.32 0.08l0.41 -0.08 0.04 0.23 -0.41 0.09 -0.04 -0.24zm-0.94 -0.02l0.42 0 0 0.23 -0.42 0 0 -0.23zm0.42 0.44l0 0.82 -0.42 0 0 -0.82 0.42 0zm0.08 -0.44l0.42 0 0 0.23 -0.42 0 0 -0.23zm0.42 0.44l0 0.82 -0.42 0 0 -0.82 0.42 0zm0.51 -0.07l0.17 0.81 -0.41 0.08 -0.17 -0.8 0.41 -0.09z"/>
  <path class="fil2" d="M0.81 1.33l0 0.26 0.06 0c0.04,0 0.05,-0.02 0.05,-0.06l0 -0.02c0,-0.03 -0.01,-0.05 -0.03,-0.06 0.02,0 0.03,-0.02 0.03,-0.05l0 -0.01c0,-0.04 -0.01,-0.06 -0.05,-0.06l-0.06 0zm4.31 -1.27l0.41 0 0 1.24 -0.41 0 0 -1.24zm-3.15 0.87l0 -0.5 -0.1 0 -0.16 0 -0.5 0 0 0.14 0.42 0 0 0.21 -0.42 0 0 0.15 0.76 0zm-0.1 -0.87l0.83 0c0.1,0 0.19,0.01 0.26,0.04 0.08,0.02 0.14,0.06 0.2,0.1 0.05,0.05 0.09,0.11 0.13,0.18 0.03,0.08 0.05,0.18 0.05,0.3 -0.01,0.11 -0.03,0.21 -0.06,0.29 -0.03,0.08 -0.07,0.14 -0.12,0.18 -0.06,0.05 -0.12,0.09 -0.19,0.11 -0.08,0.03 -0.17,0.04 -0.29,0.04l-0.71 0 0 0 -1.17 0 0 -0.87 -0.12 0 0 0.87c0,0.1 -0.01,0.16 -0.03,0.2 -0.02,0.04 -0.05,0.08 -0.09,0.11 -0.04,0.04 -0.1,0.06 -0.17,0.08 -0.06,0.02 -0.12,0.03 -0.18,0.04 -0.05,0 -0.12,0.01 -0.21,0.01l0 -0.37c0.05,0 0.09,0 0.12,-0.01 0.03,0 0.06,-0.01 0.08,-0.02 0.02,-0.01 0.04,-0.03 0.05,-0.05 0.01,-0.01 0.02,-0.05 0.03,-0.1l0 -1.13 0.27 0 0.35 0 0.81 0 0.16 0zm0.51 0.3l0 0.63 0.24 0c0.05,0 0.1,-0.02 0.13,-0.04 0.03,-0.02 0.06,-0.05 0.08,-0.08 0.02,-0.04 0.03,-0.1 0.04,-0.19 0,-0.09 -0.01,-0.15 -0.04,-0.19 -0.02,-0.04 -0.05,-0.07 -0.08,-0.09 -0.03,-0.02 -0.08,-0.04 -0.13,-0.04l-0.24 0zm0.92 1.06l1.73 0c0.01,0 0.01,0.01 0.01,0.01l0 0.14c0,0.01 0,0.01 -0.01,0.01l-1.73 0c0,0 -0.01,0 -0.01,-0.01l0 -0.14c0,0 0.01,-0.01 0.01,-0.01zm-0.41 0.03l0 -0.1 0.09 0 0 -0.02 -0.11 0 0 0.26 0.11 0 0 -0.02 -0.09 0 0 -0.1 0.07 0 0 -0.02 -0.07 0zm-0.14 -0.09l0.08 0.23 0.01 0 0 -0.26 -0.01 0 0 0.22 -0.08 -0.22 -0.02 0 0 0.26 0.02 0 0 -0.23zm-0.07 -0.03l0 0.26 0.02 0 0 -0.26 -0.02 0zm-0.02 0.26l0 -0.02 -0.08 0 0 -0.24 -0.02 0 0 0.26 0.1 0zm-0.2 -0.12l0.07 0 0 -0.02 -0.07 0 0 0.02zm-0.12 -0.11l0.08 0.23 0.02 0 0 -0.26 -0.02 0 0 0.22 -0.08 -0.22 -0.02 0 0 0.26 0.02 0 0 -0.23zm-0.16 0.17c0,0.03 0.02,0.06 0.06,0.06 0.04,0 0.05,-0.03 0.05,-0.06l0 -0.13c0,-0.04 -0.01,-0.07 -0.05,-0.07 -0.04,0 -0.06,0.03 -0.06,0.07l0 0.13zm0.02 -0.14c0,-0.02 0.01,-0.04 0.04,-0.04 0.02,0 0.04,0.02 0.04,0.04l0 0.14c0,0.03 -0.02,0.05 -0.04,0.05 -0.03,0 -0.04,-0.02 -0.04,-0.05l0 -0.14zm-0.25 0.14l0.02 0.06 0.01 0 -0.05 -0.26 -0.03 0 -0.06 0.26 0.02 0 0.01 -0.06 0.08 0zm-0.04 -0.18l0.04 0.17 -0.07 0 0.03 -0.17zm-0.15 -0.02c-0.03,0 -0.05,0.03 -0.05,0.07l0 0.13c0,0.03 0.02,0.06 0.05,0.06 0.04,0 0.06,-0.03 0.06,-0.06l0 -0.03 -0.02 0 0 0.03c0,0.03 -0.01,0.05 -0.03,0.05 -0.03,0 -0.04,-0.02 -0.04,-0.05l0 -0.14c0,-0.02 0.01,-0.04 0.04,-0.04 0.02,0 0.03,0.02 0.03,0.04l0 0.03 0.02 0 0 -0.02c0,-0.04 -0.02,-0.07 -0.06,-0.07zm-0.16 0.12l0 -0.1 0.08 0 0 -0.02 -0.1 0 0 0.26 0.1 0 0 -0.02 -0.08 0 0 -0.1 0.07 0 0 -0.02 -0.07 0zm-0.09 0.14l0 -0.24 0.05 0 0 -0.02 -0.12 0 0 0.02 0.05 0 0 0.24 0.02 0zm-0.2 -0.06c0,0.03 0.01,0.06 0.05,0.06 0.04,0 0.06,-0.03 0.06,-0.06l0 -0.13c0,-0.04 -0.02,-0.07 -0.06,-0.07 -0.04,0 -0.05,0.03 -0.05,0.07l0 0.13zm0.01 -0.14c0,-0.02 0.01,-0.04 0.04,-0.04 0.03,0 0.04,0.02 0.04,0.04l0 0.14c0,0.03 -0.01,0.05 -0.04,0.05 -0.03,0 -0.04,-0.02 -0.04,-0.05l0 -0.14zm-0.06 -0.06l0 0.26 0.02 0 0 -0.26 -0.02 0zm-0.02 0.26l0 -0.02 -0.09 0 0 -0.24 -0.01 0 0 0.26 0.1 0zm-0.24 -0.26l0 0.26 0.05 0c0.04,0 0.06,-0.02 0.06,-0.06l0 -0.02c0,-0.03 -0.01,-0.05 -0.04,-0.06 0.03,0 0.03,-0.02 0.03,-0.05l0 -0.01c0,-0.04 -0.01,-0.06 -0.05,-0.06l-0.05 0zm0.01 0.12l0 -0.1 0.04 0c0.03,0 0.04,0.01 0.04,0.04l0 0.02c0,0.03 -0.02,0.04 -0.05,0.04l-0.03 0zm0 0.12l0 -0.11 0.04 0c0.03,0 0.04,0.01 0.04,0.05l0 0.02c0,0.03 -0.01,0.04 -0.04,0.04l-0.04 0zm-0.06 -0.24l0 0.26 0.02 0 0 -0.26 -0.02 0zm-0.12 0.12l0 -0.1 0.04 0c0.02,0 0.03,0.01 0.03,0.04l0 0.02c0,0.03 -0.01,0.04 -0.04,0.04l-0.03 0zm0 0.12l0 -0.11 0.03 0c0.03,0 0.05,0.01 0.05,0.05l0 0.02c0,0.03 -0.01,0.04 -0.04,0.04l-0.04 0z"/>
 </g>
</svg>
